<svg width="388" height="388" viewBox="0 0 388 388" fill="none" xmlns="http://www.w3.org/2000/svg">
<path d="M197.252 290.567C184.643 290.567 171.852 285.703 162.305 276.156C152.937 266.788 147.713 254.359 147.713 241.208C147.713 228.058 152.937 215.448 162.305 206.261L187.703 180.861C192.927 175.637 201.574 175.637 206.798 180.861C212.022 186.085 212.022 194.732 206.798 199.956L181.4 225.356C177.077 229.679 174.735 235.264 174.735 241.208C174.735 247.153 177.077 252.918 181.4 257.061C190.227 265.888 204.458 265.888 213.285 257.061L253.277 217.069C276.155 194.191 276.155 157.083 253.277 134.205C230.399 111.327 193.289 111.327 170.411 134.205L126.816 177.798C117.629 186.986 112.585 199.055 112.585 211.845C112.585 224.635 117.629 236.885 126.816 245.892C132.04 251.116 132.04 259.763 126.816 264.987C121.592 270.211 112.945 270.211 107.721 264.987C93.4897 250.756 85.7441 231.841 85.7441 211.665C85.7441 191.489 93.4897 172.574 107.721 158.343L151.316 114.749C184.643 81.4228 239.045 81.4228 272.372 114.749C305.698 148.075 305.698 202.478 272.372 235.804L232.38 275.796C222.652 285.703 210.043 290.567 197.252 290.567Z" fill="#292D32"/>
<path d="M247.695 387.305H139.61C41.7929 387.305 0 345.512 0 247.695V139.61C0 41.7929 41.7929 0 139.61 0H247.695C345.512 0 387.305 41.7929 387.305 139.61V247.695C387.305 345.512 345.512 387.305 247.695 387.305ZM139.61 27.0213C56.5645 27.0213 27.0213 56.5645 27.0213 139.61V247.695C27.0213 330.74 56.5645 360.284 139.61 360.284H247.695C330.74 360.284 360.284 330.74 360.284 247.695V139.61C360.284 56.5645 330.74 27.0213 247.695 27.0213H139.61Z" fill="#292D32"/>
</svg>
