<svg width="388" height="397" viewBox="0 0 388 397" fill="none" xmlns="http://www.w3.org/2000/svg">
<path d="M290.207 396.17H97.0975C45.5033 396.17 12.7042 365.398 9.75592 313.988L0.174144 161.969C-1.29998 138.936 6.62342 116.824 22.4702 100.056C38.1327 83.2878 60.2445 73.706 83.0934 73.706C88.9899 73.706 94.7021 70.205 97.4661 64.677L110.733 38.3271C121.605 16.7681 148.876 0 172.646 0H214.843C238.613 0 265.7 16.7681 276.572 38.1429L289.839 65.0456C292.603 70.205 298.131 73.706 304.212 73.706C327.06 73.706 349.172 83.2878 364.835 100.056C380.682 117.008 388.605 138.936 387.131 161.969L377.549 314.172C374.232 366.319 342.354 396.17 290.207 396.17ZM172.646 27.6398C159.011 27.6398 141.69 38.3271 135.425 50.6729L122.158 77.207C114.418 92.1325 99.493 101.346 83.0934 101.346C67.6151 101.346 53.2423 107.611 42.5551 118.851C32.052 130.091 26.7083 144.832 27.8139 160.126L37.3957 312.329C39.6067 349.551 59.6917 368.53 97.0975 368.53H290.207C327.429 368.53 347.514 349.551 349.909 312.329L359.491 160.126C360.412 144.832 355.253 130.091 344.75 118.851C334.063 107.611 319.69 101.346 304.212 101.346C287.812 101.346 272.887 92.1325 265.147 77.5756L251.696 50.6729C245.615 38.5114 228.294 27.824 214.659 27.824H172.646V27.6398Z" fill="#292D32"/>
<path d="M221.299 138.199H166.019C158.464 138.199 152.199 131.934 152.199 124.379C152.199 116.824 158.464 110.559 166.019 110.559H221.299C228.853 110.559 235.118 116.824 235.118 124.379C235.118 131.934 228.853 138.199 221.299 138.199Z" fill="#292D32"/>
<path d="M193.659 322.464C152.937 322.464 119.953 289.48 119.953 248.758C119.953 208.035 152.937 175.052 193.659 175.052C234.382 175.052 267.365 208.035 267.365 248.758C267.365 289.48 234.382 322.464 193.659 322.464ZM193.659 202.692C168.231 202.692 147.593 223.329 147.593 248.758C147.593 274.186 168.231 294.824 193.659 294.824C219.088 294.824 239.725 274.186 239.725 248.758C239.725 223.329 219.088 202.692 193.659 202.692Z" fill="#292D32"/>
</svg>
