<svg width="129" height="129" viewBox="0 0 129 129" fill="none" xmlns="http://www.w3.org/2000/svg">
<path d="M13.4869 128.997C10.0642 128.997 6.6417 127.736 3.93957 125.034C-1.28454 119.809 -1.28454 111.163 3.93957 105.939L105.9 3.97839C111.124 -1.24573 119.771 -1.24573 124.995 3.97839C130.219 9.2025 130.219 17.8493 124.995 23.0734L23.0344 125.034C20.5124 127.736 16.9096 128.997 13.4869 128.997Z" fill="#292D32"/>
<path d="M115.448 128.997C112.025 128.997 108.602 127.736 105.9 125.034L3.93957 23.0734C-1.28454 17.8493 -1.28454 9.2025 3.93957 3.97839C9.1635 -1.24573 17.8103 -1.24573 23.0344 3.97839L124.995 105.939C130.219 111.163 130.219 119.809 124.995 125.034C122.293 127.736 118.87 128.997 115.448 128.997Z" fill="#292D32"/>
</svg>
