<svg width="195" height="195" viewBox="0 0 195 195" fill="none" xmlns="http://www.w3.org/2000/svg">
<path d="M69.9505 85.7457C56.2312 85.7457 45.1294 74.6439 45.1294 60.9246C45.1294 47.2053 56.2312 36.1035 69.9505 36.1035C83.6698 36.1035 94.7716 47.2053 94.7716 60.9246C94.7716 74.6439 83.6698 85.7457 69.9505 85.7457ZM69.9505 49.6423C63.7227 49.6423 58.6682 54.6968 58.6682 60.9246C58.6682 67.1525 63.7227 72.2069 69.9505 72.2069C76.1783 72.2069 81.2328 67.1525 81.2328 60.9246C81.2328 54.6968 76.1783 49.6423 69.9505 49.6423Z" fill="#292D32"/>
<path d="M124.106 194.056H69.9504C20.94 194.056 0 173.116 0 124.106V69.9504C0 20.94 20.94 0 69.9504 0H106.054C109.754 0 112.823 3.06879 112.823 6.76939C112.823 10.47 109.754 13.5388 106.054 13.5388H69.9504C28.3412 13.5388 13.5388 28.3412 13.5388 69.9504V124.106C13.5388 165.715 28.3412 180.517 69.9504 180.517H124.106C165.715 180.517 180.517 165.715 180.517 124.106V78.9762C180.517 75.2756 183.586 72.2068 187.287 72.2068C190.987 72.2068 194.056 75.2756 194.056 78.9762V124.106C194.056 173.116 173.116 194.056 124.106 194.056Z" fill="#292D32"/>
<path d="M151.183 67.6932C147.482 67.6932 144.414 64.6244 144.414 60.9238V6.76869C144.414 4.06093 146.038 1.53369 148.565 0.54085C151.093 -0.451994 153.981 0.0895574 155.967 1.98499L174.018 20.0367C176.636 22.6542 176.636 26.9866 174.018 29.6041C171.401 32.2216 167.068 32.2216 164.451 29.6041L157.952 23.1055V60.9238C157.952 64.6244 154.884 67.6932 151.183 67.6932Z" fill="#292D32"/>
<path d="M133.126 31.5855C131.412 31.5855 129.697 30.9537 128.343 29.5998C125.725 26.9823 125.725 22.6499 128.343 20.0324L146.394 1.9807C149.012 -0.636796 153.344 -0.636796 155.962 1.9807C158.579 4.5982 158.579 8.93061 155.962 11.5481L137.91 29.5998C136.556 30.9537 134.841 31.5855 133.126 31.5855Z" fill="#292D32"/>
<path d="M12.8105 166.532C10.6443 166.532 8.4781 165.449 7.21448 163.554C5.13853 160.485 5.95086 156.243 9.01965 154.167L53.5171 124.291C63.265 117.793 76.7136 118.515 85.5587 126.006L88.5373 128.624C93.0502 132.505 100.722 132.505 105.145 128.624L142.692 96.4014C152.26 88.1878 167.333 88.1878 176.991 96.4014L191.703 109.038C194.501 111.475 194.862 115.717 192.425 118.605C189.988 121.403 185.655 121.764 182.857 119.327L168.145 106.691C163.632 102.81 156.051 102.81 151.538 106.691L113.99 138.913C104.423 147.127 89.3496 147.127 79.6919 138.913L76.7136 136.296C72.5617 132.776 65.702 132.415 61.0988 135.574L16.6916 165.449C15.428 166.171 14.0741 166.532 12.8105 166.532Z" fill="#292D32"/>
</svg>
