<svg width="417" height="417" viewBox="0 0 417 417" fill="none" xmlns="http://www.w3.org/2000/svg">
<path d="M257.645 159.657L159.658 257.644C147.07 245.057 139.324 227.822 139.324 208.65C139.324 170.307 170.308 139.323 208.651 139.323C227.823 139.323 245.058 147.07 257.645 159.657Z" stroke="#292D32" stroke-width="29.0479" stroke-linecap="round" stroke-linejoin="round"/>
<path d="M321.355 88.0066C287.466 62.4444 248.736 48.5015 208.65 48.5015C140.29 48.5015 76.5781 88.7812 32.2317 158.496C14.803 185.801 14.803 231.697 32.2317 259.002C47.5302 283.015 65.3463 303.736 84.7115 320.39" stroke="#292D32" stroke-width="29.0479" stroke-linecap="round" stroke-linejoin="round"/>
<path d="M139.324 354.473C161.401 363.768 184.832 368.803 208.651 368.803C277.01 368.803 340.722 328.523 385.068 258.808C402.497 231.503 402.497 185.608 385.068 158.302C378.678 148.232 371.706 138.743 364.541 129.835" stroke="#292D32" stroke-width="29.0479" stroke-linecap="round" stroke-linejoin="round"/>
<path d="M276.614 222.207C271.579 249.512 249.309 271.782 222.004 276.817" stroke="#292D32" stroke-width="29.0479" stroke-linecap="round" stroke-linejoin="round"/>
<path d="M159.658 257.647L15 402.306" stroke="#292D32" stroke-width="29.0479" stroke-linecap="round" stroke-linejoin="round"/>
<path d="M402.291 15L257.633 159.658" stroke="#292D32" stroke-width="29.0479" stroke-linecap="round" stroke-linejoin="round"/>
</svg>
