<svg width="388" height="229" viewBox="0 0 388 229" fill="none" xmlns="http://www.w3.org/2000/svg">
<path d="M372.409 29.7927H14.8963C6.75301 29.7927 0 23.0397 0 14.8963C0 6.75301 6.75301 0 14.8963 0H372.409C380.552 0 387.305 6.75301 387.305 14.8963C387.305 23.0397 380.552 29.7927 372.409 29.7927Z" fill="#292D32"/>
<path d="M372.409 129.102H14.8963C6.75301 129.102 0 122.349 0 114.205C0 106.062 6.75301 99.3091 14.8963 99.3091H372.409C380.552 99.3091 387.305 106.062 387.305 114.205C387.305 122.349 380.552 129.102 372.409 129.102Z" fill="#292D32"/>
<path d="M372.409 228.411H14.8963C6.75301 228.411 0 221.658 0 213.515C0 205.371 6.75301 198.618 14.8963 198.618H372.409C380.552 198.618 387.305 205.371 387.305 213.515C387.305 221.658 380.552 228.411 372.409 228.411Z" fill="#292D32"/>
</svg>
