<svg width="417" height="417" viewBox="0 0 417 417" fill="none" xmlns="http://www.w3.org/2000/svg">
<path d="M401.724 331.235C401.724 338.206 400.175 345.371 396.883 352.343C393.591 359.314 389.33 365.898 383.714 372.095C374.225 382.552 363.768 390.105 351.955 394.946C340.336 399.788 327.749 402.305 314.193 402.305C294.441 402.305 273.332 397.657 251.062 388.168C228.792 378.679 206.522 365.898 184.446 349.825C162.176 333.558 141.068 315.549 120.928 295.602C100.982 275.463 82.972 254.355 66.8989 232.278C51.0194 210.202 38.2383 188.125 28.943 166.243C19.6477 144.166 15 123.058 15 102.918C15 89.7499 17.3238 77.1625 21.9715 65.5433C26.6191 53.7305 33.9779 42.886 44.2415 33.2033C56.6353 21.0032 70.191 15 84.5213 15C89.9435 15 95.3658 16.1619 100.207 18.4857C105.242 20.8096 109.696 24.2953 113.182 29.3303L158.109 92.6547C161.595 97.496 164.112 101.95 165.855 106.21C167.598 110.277 168.566 114.344 168.566 118.023C168.566 122.671 167.211 127.318 164.5 131.772C161.982 136.226 158.303 140.874 153.655 145.522L138.938 160.82C136.807 162.951 135.839 165.468 135.839 168.566C135.839 170.116 136.033 171.471 136.42 173.02C137.001 174.57 137.582 175.732 137.969 176.893C141.455 183.284 147.458 191.611 155.979 201.681C164.693 211.751 173.989 222.015 184.059 232.278C194.516 242.542 204.586 252.031 214.849 260.745C224.919 269.266 233.246 275.075 239.831 278.561C240.799 278.948 241.961 279.529 243.316 280.11C244.866 280.691 246.415 280.885 248.158 280.885C251.45 280.885 253.967 279.723 256.097 277.593L270.815 263.069C275.656 258.228 280.304 254.548 284.758 252.224C289.212 249.513 293.666 248.158 298.507 248.158C302.187 248.158 306.06 248.932 310.32 250.675C314.58 252.418 319.034 254.935 323.876 258.228L387.975 303.736C393.01 307.222 396.495 311.288 398.626 316.13C400.562 320.971 401.724 325.812 401.724 331.235Z" stroke="#292D32" stroke-width="29.0479" stroke-miterlimit="10"/>
<path d="M334.526 150.557C334.526 138.938 325.425 121.122 311.869 106.598C299.475 93.2356 283.015 82.7783 266.748 82.7783" stroke="#292D32" stroke-width="29.0479" stroke-linecap="round" stroke-linejoin="round"/>
<path d="M402.305 150.557C402.305 75.6132 341.692 15 266.748 15" stroke="#292D32" stroke-width="29.0479" stroke-linecap="round" stroke-linejoin="round"/>
</svg>
