<svg width="195" height="195" viewBox="0 0 195 195" fill="none" xmlns="http://www.w3.org/2000/svg">
<path d="M7.47044 77.615C3.29864 77.615 0 74.3163 0 70.1445V47.7332C0 21.4411 21.4411 0 47.7332 0H70.1445C74.3163 0 77.615 3.29864 77.615 7.47044C77.615 11.6422 74.3163 14.9409 70.1445 14.9409H47.7332C29.5907 14.9409 14.9409 29.6877 14.9409 47.7332V70.1445C14.9409 74.3163 11.5452 77.615 7.47044 77.615Z" fill="#292D32"/>
<path d="M186.567 77.615C182.492 77.615 179.096 74.3163 179.096 70.1445V47.7332C179.096 29.5907 164.35 14.9409 146.304 14.9409H123.893C119.721 14.9409 116.422 11.5452 116.422 7.47044C116.422 3.39566 119.721 0 123.893 0H146.304C172.596 0 194.037 21.4411 194.037 47.7332V70.1445C194.037 74.3163 190.739 77.615 186.567 77.615Z" fill="#292D32"/>
<path d="M146.322 194.035H132.837C128.762 194.035 125.366 190.736 125.366 186.564C125.366 182.489 128.665 179.094 132.837 179.094H146.322C164.465 179.094 179.115 164.347 179.115 146.301V132.913C179.115 128.838 182.413 125.442 186.585 125.442C190.66 125.442 194.055 128.741 194.055 132.913V146.301C194.055 172.593 172.614 194.035 146.322 194.035Z" fill="#292D32"/>
<path d="M70.1445 194.038H47.7332C21.4411 194.038 0 172.597 0 146.305V123.893C0 119.721 3.29864 116.423 7.47044 116.423C11.6422 116.423 14.9409 119.721 14.9409 123.893V146.305C14.9409 164.447 29.6877 179.097 47.7332 179.097H70.1445C74.2193 179.097 77.615 182.396 77.615 186.567C77.615 190.739 74.3163 194.038 70.1445 194.038Z" fill="#292D32"/>
<path d="M159.688 89.5527H146.493H47.5346H34.3401C30.1683 89.5527 26.8696 92.9484 26.8696 97.0232C26.8696 101.098 30.1683 104.494 34.3401 104.494H47.5346H146.493H159.688C163.86 104.494 167.158 101.098 167.158 97.0232C167.158 92.9484 163.86 89.5527 159.688 89.5527Z" fill="#292D32"/>
<path d="M47.5239 115.845V119.047C47.5239 135.152 60.5244 148.152 76.6296 148.152H117.377C133.482 148.152 146.483 135.152 146.483 119.047V115.845C146.483 114.681 145.609 113.808 144.445 113.808H49.5613C48.3971 113.808 47.5239 114.681 47.5239 115.845Z" fill="#292D32"/>
<path d="M47.5239 78.2021V75.0001C47.5239 58.895 60.5244 45.8945 76.6296 45.8945H117.377C133.482 45.8945 146.483 58.895 146.483 75.0001V78.2021C146.483 79.3663 145.609 80.2395 144.445 80.2395H49.5613C48.3971 80.2395 47.5239 79.3663 47.5239 78.2021Z" fill="#292D32"/>
</svg>
