<svg width="418" height="358" viewBox="0 0 418 358" fill="none" xmlns="http://www.w3.org/2000/svg">
<path d="M279.504 178.865C279.504 218.051 247.838 249.716 208.653 249.716C169.467 249.716 137.803 218.051 137.803 178.865C137.803 139.68 169.467 108.015 208.653 108.015C247.838 108.015 279.504 139.68 279.504 178.865Z" stroke="#292D32" stroke-width="29.6861" stroke-linecap="round" stroke-linejoin="round"/>
<path d="M208.653 342.537C278.514 342.537 343.626 301.372 388.946 230.126C406.758 202.221 406.758 155.317 388.946 127.411C343.626 56.1647 278.514 15 208.653 15C138.791 15 73.6795 56.1647 28.3587 127.411C10.5471 155.317 10.5471 202.221 28.3587 230.126C73.6795 301.372 138.791 342.537 208.653 342.537Z" stroke="#292D32" stroke-width="29.6861" stroke-linecap="round" stroke-linejoin="round"/>
</svg>
